<svg viewBox="0 0 32 32" xmlns="http://www.w3.org/2000/svg"><g id="Transfer"><path d="m18 23h-3v-11a1 1 0 0 0 -1-1h-4a1 1 0 0 0 -1 1v11h-3a1 1 0 0 0 -.759 1.65l6 7a1 1 0 0 0 1.518 0l6-7a1 1 0 0 0 -.759-1.65zm-6 6.464-3.826-4.464h1.826a1 1 0 0 0 1-1v-11h2v11a1 1 0 0 0 1 1h1.826z"></path><path d="m26.759 7.35-6-7a1.031 1.031 0 0 0 -1.518 0l-6 7a1 1 0 0 0 .759 1.65h3v11a1 1 0 0 0 1 1h4a1 1 0 0 0 1-1v-11h3a1 1 0 0 0 .759-1.65zm-4.759-.35a1 1 0 0 0 -1 1v11h-2v-11a1 1 0 0 0 -1-1h-1.826l3.826-4.464 3.826 4.464z"></path></g></svg>