<?xml version="1.0" ?><svg data-name="레이어 1" id="레이어_1" viewBox="0 0 40 40" xmlns="http://www.w3.org/2000/svg"><path d="M31,18.93a.9.9,0,0,0-.9.9V32.66a2,2,0,0,1-2.11,2h-22a2,2,0,0,1-2.12-2V11.85A2,2,0,0,1,5.92,9.9H23.05a.9.9,0,1,0,0-1.8H5.92A3.84,3.84,0,0,0,2,11.85V32.66a3.84,3.84,0,0,0,3.92,3.75H28a3.84,3.84,0,0,0,3.91-3.75V19.83A.9.9,0,0,0,31,18.93Z"/><path d="M38,9.24A3.16,3.16,0,0,0,37,7L34.35,4.44a3.13,3.13,0,0,0-4.3,0L16.4,17.33a.91.91,0,0,0-.28.54l-.83,6.37a.85.85,0,0,0,.25.74.88.88,0,0,0,.64.28h.09l6.61-.64a1,1,0,0,0,.53-.24l11.64-11h0l2-1.85A3.12,3.12,0,0,0,38,9.24ZM22.39,22.85l-5.17.5.64-4.93,10.63-10,4.6,4.36ZM35.78,10.21l-1.38,1.3L29.8,7.15l1.49-1.4a1.33,1.33,0,0,1,1.82,0l2.67,2.52a1.33,1.33,0,0,1,0,1.94Z"/></svg>